<svg width="170" height="39" viewBox="0 0 170 39" fill="none" xmlns="http://www.w3.org/2000/svg">
<path fill-rule="evenodd" clip-rule="evenodd" d="M10.2552 0.854248C4.59139 0.854248 0 5.44564 0 11.1094V27.8906C0 33.5544 4.59139 38.1457 10.2552 38.1457H27.0363C32.7001 38.1457 37.2915 33.5544 37.2915 27.8906V11.1094C37.2915 5.44564 32.7001 0.854248 27.0363 0.854248H10.2552ZM24.9544 16.9834C25.0213 17.0216 25.0767 17.0766 25.1148 17.1426C25.153 17.2087 25.1726 17.2835 25.1717 17.3594C25.1708 17.4353 25.1493 17.5096 25.1096 17.5748L18.2533 29.5545C18.2007 29.6359 18.1219 29.6977 18.0294 29.73C17.9369 29.7624 17.836 29.7635 17.7428 29.7331C17.6495 29.7028 17.5693 29.6427 17.5149 29.5625C17.4605 29.4822 17.4351 29.3865 17.4425 29.2904L18.2042 22.0762H12.5572C12.4794 22.0762 12.403 22.0558 12.3358 22.0171C12.2687 21.9785 12.2133 21.923 12.1753 21.8564C12.1373 21.7897 12.1182 21.7143 12.1198 21.638C12.1214 21.5617 12.1438 21.4871 12.1845 21.4221L19.156 9.44108C19.2099 9.35983 19.2901 9.29874 19.3837 9.26764C19.4773 9.23654 19.5788 9.23724 19.6719 9.26964C19.7651 9.30203 19.8444 9.36422 19.8971 9.44621C19.9498 9.5282 19.9729 9.6252 19.9626 9.72161L19.0015 16.925H24.7341C24.8115 16.925 24.8875 16.9451 24.9544 16.9834Z" fill="black"/>
<path d="M62.9953 11.652H55.7313V30.5H51.3473V11.652H44.0833V7.78H62.9953V11.652ZM70.0195 30.82C68.6755 30.82 67.4595 30.596 66.3715 30.148C65.2835 29.6787 64.3555 29.0493 63.5875 28.26C62.8195 27.4493 62.2222 26.532 61.7955 25.508C61.3902 24.4627 61.1875 23.364 61.1875 22.212C61.1875 20.612 61.5395 19.1507 62.2435 17.828C62.9688 16.5053 63.9928 15.4493 65.3155 14.66C66.6595 13.8493 68.2382 13.444 70.0515 13.444C71.8862 13.444 73.4542 13.8493 74.7555 14.66C76.0568 15.4493 77.0488 16.5053 77.7315 17.828C78.4355 19.1293 78.7875 20.5373 78.7875 22.052C78.7875 22.308 78.7768 22.5747 78.7555 22.852C78.7342 23.108 78.7128 23.3213 78.6915 23.492H65.7315C65.8168 24.3453 66.0622 25.092 66.4675 25.732C66.8942 26.372 67.4275 26.8627 68.0675 27.204C68.7288 27.524 69.4328 27.684 70.1795 27.684C71.0328 27.684 71.8328 27.4813 72.5795 27.076C73.3475 26.6493 73.8702 26.0947 74.1475 25.412L77.8275 26.436C77.4222 27.2893 76.8355 28.0467 76.0675 28.708C75.3208 29.3693 74.4355 29.892 73.4115 30.276C72.3875 30.6387 71.2568 30.82 70.0195 30.82ZM65.6355 20.772H74.4035C74.3182 19.9187 74.0728 19.1827 73.6675 18.564C73.2835 17.924 72.7715 17.4333 72.1315 17.092C71.4915 16.7293 70.7768 16.548 69.9875 16.548C69.2195 16.548 68.5155 16.7293 67.8755 17.092C67.2568 17.4333 66.7448 17.924 66.3395 18.564C65.9555 19.1827 65.7208 19.9187 65.6355 20.772ZM89.2078 30.82C87.8424 30.82 86.6158 30.596 85.5278 30.148C84.4398 29.6787 83.5118 29.0387 82.7438 28.228C81.9758 27.396 81.3784 26.4573 80.9518 25.412C80.5464 24.3667 80.3438 23.268 80.3438 22.116C80.3438 20.5373 80.6958 19.0973 81.3998 17.796C82.1251 16.4733 83.1491 15.4173 84.4718 14.628C85.7944 13.8387 87.3624 13.444 89.1758 13.444C90.9891 13.444 92.5464 13.8387 93.8478 14.628C95.1491 15.4173 96.1198 16.452 96.7598 17.732L92.5678 19.012C92.2051 18.3933 91.7251 17.924 91.1278 17.604C90.5304 17.2627 89.8691 17.092 89.1438 17.092C88.3331 17.092 87.5864 17.3053 86.9038 17.732C86.2424 18.1373 85.7198 18.724 85.3358 19.492C84.9518 20.2387 84.7598 21.1133 84.7598 22.116C84.7598 23.0973 84.9518 23.972 85.3358 24.74C85.7411 25.4867 86.2744 26.084 86.9358 26.532C87.5971 26.9587 88.3331 27.172 89.1438 27.172C89.6558 27.172 90.1358 27.0867 90.5838 26.916C91.0531 26.7453 91.4691 26.5107 91.8318 26.212C92.1944 25.9133 92.4611 25.572 92.6318 25.188L96.8238 26.468C96.4398 27.3 95.8744 28.0467 95.1278 28.708C94.4024 29.3693 93.5384 29.892 92.5358 30.276C91.5544 30.6387 90.4451 30.82 89.2078 30.82ZM115.046 30.5H110.758V21.092C110.758 19.7907 110.502 18.82 109.99 18.18C109.5 17.54 108.817 17.22 107.942 17.22C107.43 17.22 106.886 17.3693 106.31 17.668C105.734 17.9667 105.212 18.3827 104.742 18.916C104.294 19.428 103.964 20.0253 103.75 20.708V30.5H99.4623V7.14H103.75V16.836C104.369 15.7693 105.212 14.9373 106.278 14.34C107.345 13.7427 108.508 13.444 109.766 13.444C110.854 13.444 111.74 13.636 112.422 14.02C113.105 14.3827 113.638 14.884 114.022 15.524C114.406 16.1427 114.673 16.8467 114.822 17.636C114.972 18.404 115.046 19.204 115.046 20.036V30.5ZM137.432 24.644C137.432 25.924 137.102 27.0013 136.44 27.876C135.779 28.7293 134.883 29.38 133.752 29.828C132.643 30.276 131.427 30.5 130.104 30.5H119.128V7.78H131.288C132.355 7.78 133.272 8.068 134.04 8.644C134.83 9.19867 135.427 9.924 135.832 10.82C136.259 11.6947 136.472 12.612 136.472 13.572C136.472 14.66 136.195 15.6947 135.64 16.676C135.086 17.6573 134.275 18.3827 133.208 18.852C134.51 19.236 135.534 19.9293 136.28 20.932C137.048 21.9347 137.432 23.172 137.432 24.644ZM132.984 23.812C132.984 23.236 132.867 22.724 132.632 22.276C132.398 21.8067 132.078 21.444 131.672 21.188C131.288 20.9107 130.84 20.772 130.328 20.772H123.544V26.756H130.104C130.638 26.756 131.118 26.628 131.544 26.372C131.992 26.0947 132.344 25.732 132.6 25.284C132.856 24.836 132.984 24.3453 132.984 23.812ZM123.544 11.556V17.284H129.432C129.923 17.284 130.371 17.1667 130.776 16.932C131.182 16.6973 131.502 16.3667 131.736 15.94C131.992 15.5133 132.12 15.0013 132.12 14.404C132.12 13.828 132.003 13.3267 131.768 12.9C131.555 12.4733 131.256 12.1427 130.872 11.908C130.51 11.6733 130.094 11.556 129.624 11.556H123.544ZM148.206 30.82C146.841 30.82 145.614 30.596 144.526 30.148C143.438 29.6787 142.51 29.0387 141.742 28.228C140.996 27.4173 140.42 26.4893 140.014 25.444C139.609 24.3987 139.406 23.3 139.406 22.148C139.406 20.9747 139.609 19.8653 140.014 18.82C140.42 17.7747 140.996 16.8467 141.742 16.036C142.51 15.2253 143.438 14.596 144.526 14.148C145.614 13.6787 146.841 13.444 148.206 13.444C149.572 13.444 150.788 13.6787 151.854 14.148C152.942 14.596 153.87 15.2253 154.638 16.036C155.406 16.8467 155.982 17.7747 156.366 18.82C156.772 19.8653 156.974 20.9747 156.974 22.148C156.974 23.3 156.772 24.3987 156.366 25.444C155.982 26.4893 155.406 27.4173 154.638 28.228C153.892 29.0387 152.974 29.6787 151.886 30.148C150.798 30.596 149.572 30.82 148.206 30.82ZM143.822 22.148C143.822 23.1293 144.014 24.004 144.398 24.772C144.782 25.5187 145.305 26.1053 145.966 26.532C146.628 26.9587 147.374 27.172 148.206 27.172C149.017 27.172 149.753 26.9587 150.414 26.532C151.076 26.084 151.598 25.4867 151.982 24.74C152.388 23.972 152.59 23.0973 152.59 22.116C152.59 21.156 152.388 20.292 151.982 19.524C151.598 18.756 151.076 18.1587 150.414 17.732C149.753 17.3053 149.017 17.092 148.206 17.092C147.374 17.092 146.628 17.316 145.966 17.764C145.305 18.1907 144.782 18.788 144.398 19.556C144.014 20.3027 143.822 21.1667 143.822 22.148ZM169.667 29.636C169.304 29.7853 168.867 29.956 168.355 30.148C167.843 30.34 167.288 30.4893 166.691 30.596C166.115 30.724 165.528 30.788 164.931 30.788C164.141 30.788 163.416 30.6493 162.755 30.372C162.093 30.0947 161.56 29.6573 161.155 29.06C160.771 28.4413 160.579 27.6413 160.579 26.66V17.028H158.371V13.732H160.579V8.292H164.867V13.732H168.387V17.028H164.867V25.22C164.888 25.796 165.048 26.212 165.347 26.468C165.645 26.724 166.019 26.852 166.467 26.852C166.915 26.852 167.352 26.7773 167.779 26.628C168.205 26.4787 168.547 26.3507 168.803 26.244L169.667 29.636Z" fill="black"/>
</svg>
