<svg width="38" height="39" viewBox="0 0 38 39" fill="none" xmlns="http://www.w3.org/2000/svg">
<path fill-rule="evenodd" clip-rule="evenodd" d="M10.2552 0.854248C4.59139 0.854248 0 5.44564 0 11.1094V27.8906C0 33.5544 4.59139 38.1457 10.2552 38.1457H27.0363C32.7001 38.1457 37.2915 33.5544 37.2915 27.8906V11.1094C37.2915 5.44564 32.7001 0.854248 27.0363 0.854248H10.2552ZM24.9544 16.9834C25.0213 17.0216 25.0767 17.0766 25.1148 17.1426C25.153 17.2087 25.1726 17.2835 25.1717 17.3594C25.1708 17.4353 25.1493 17.5096 25.1096 17.5748L18.2533 29.5545C18.2007 29.6359 18.1219 29.6977 18.0294 29.73C17.9369 29.7624 17.836 29.7635 17.7428 29.7331C17.6495 29.7028 17.5693 29.6427 17.5149 29.5625C17.4605 29.4822 17.4351 29.3865 17.4425 29.2904L18.2042 22.0762H12.5572C12.4794 22.0762 12.403 22.0558 12.3358 22.0171C12.2687 21.9785 12.2133 21.923 12.1753 21.8564C12.1373 21.7897 12.1182 21.7143 12.1198 21.638C12.1214 21.5617 12.1438 21.4871 12.1845 21.4221L19.156 9.44108C19.2099 9.35983 19.2901 9.29874 19.3837 9.26764C19.4773 9.23654 19.5788 9.23724 19.6719 9.26964C19.7651 9.30203 19.8444 9.36422 19.8971 9.44621C19.9498 9.5282 19.9729 9.6252 19.9626 9.72161L19.0015 16.925H24.7341C24.8115 16.925 24.8875 16.9451 24.9544 16.9834Z" fill="black"/>
</svg>
